<svg width="153" height="19" viewBox="0 0 153 19" fill="none" xmlns="http://www.w3.org/2000/svg">
<path d="M6.825 0.55C8.65833 0.55 10.2667 0.908333 11.65 1.625C13.05 2.34167 14.125 3.36667 14.875 4.7C15.6417 6.01667 16.025 7.55 16.025 9.3C16.025 11.05 15.6417 12.5833 14.875 13.9C14.125 15.2 13.05 16.2083 11.65 16.925C10.2667 17.6417 8.65833 18 6.825 18H0.725V0.55H6.825ZM6.7 15.025C8.53333 15.025 9.95 14.525 10.95 13.525C11.95 12.525 12.45 11.1167 12.45 9.3C12.45 7.48333 11.95 6.06667 10.95 5.05C9.95 4.01667 8.53333 3.5 6.7 3.5H4.225V15.025H6.7ZM26.1449 18L22.2949 11.2H20.6449V18H17.1449V0.55H23.6949C25.0449 0.55 26.1949 0.791666 27.1449 1.275C28.0949 1.74167 28.8033 2.38333 29.2699 3.2C29.7533 4 29.9949 4.9 29.9949 5.9C29.9949 7.05 29.6616 8.09167 28.9949 9.025C28.3283 9.94167 27.3366 10.575 26.0199 10.925L30.1949 18H26.1449ZM20.6449 8.575H23.5699C24.5199 8.575 25.2283 8.35 25.6949 7.9C26.1616 7.43333 26.3949 6.79167 26.3949 5.975C26.3949 5.175 26.1616 4.55833 25.6949 4.125C25.2283 3.675 24.5199 3.45 23.5699 3.45H20.6449V8.575ZM35.1605 0.55V18H31.6605V0.55H35.1605ZM52.7936 0.55L46.3936 18H42.1436L35.7436 0.55H39.4936L44.2936 14.425L49.0686 0.55H52.7936ZM56.892 3.375V7.75H62.767V10.525H56.892V15.15H63.517V18H53.392V0.524998H63.517V3.375H56.892ZM74.1977 18L70.3477 11.2H68.6977V18H65.1977V0.55H71.7477C73.0977 0.55 74.2477 0.791666 75.1977 1.275C76.1477 1.74167 76.856 2.38333 77.3227 3.2C77.806 4 78.0477 4.9 78.0477 5.9C78.0477 7.05 77.7143 8.09167 77.0477 9.025C76.381 9.94167 75.3893 10.575 74.0727 10.925L78.2477 18H74.1977ZM68.6977 8.575H71.6227C72.5727 8.575 73.281 8.35 73.7477 7.9C74.2143 7.43333 74.4477 6.79167 74.4477 5.975C74.4477 5.175 74.2143 4.55833 73.7477 4.125C73.281 3.675 72.5727 3.45 71.6227 3.45H68.6977V8.575ZM85.7383 18.175C84.5216 18.175 83.4216 17.9667 82.4383 17.55C81.4716 17.1333 80.7049 16.5333 80.1383 15.75C79.5716 14.9667 79.2799 14.0417 79.2633 12.975H83.0133C83.0633 13.6917 83.3133 14.2583 83.7633 14.675C84.2299 15.0917 84.8633 15.3 85.6633 15.3C86.4799 15.3 87.1216 15.1083 87.5883 14.725C88.0549 14.325 88.2883 13.8083 88.2883 13.175C88.2883 12.6583 88.1299 12.2333 87.8133 11.9C87.4966 11.5667 87.0966 11.3083 86.6133 11.125C86.1466 10.925 85.4966 10.7083 84.6633 10.475C83.5299 10.1417 82.6049 9.81667 81.8883 9.5C81.1883 9.16667 80.5799 8.675 80.0633 8.025C79.5633 7.35833 79.3133 6.475 79.3133 5.375C79.3133 4.34167 79.5716 3.44167 80.0883 2.675C80.6049 1.90833 81.3299 1.325 82.2633 0.924999C83.1966 0.508333 84.2633 0.3 85.4633 0.3C87.2633 0.3 88.7216 0.741666 89.8383 1.625C90.9716 2.49167 91.5966 3.70833 91.7133 5.275H87.8633C87.8299 4.675 87.5716 4.18333 87.0883 3.8C86.6216 3.4 85.9966 3.2 85.2133 3.2C84.5299 3.2 83.9799 3.375 83.5633 3.725C83.1633 4.075 82.9633 4.58333 82.9633 5.25C82.9633 5.71667 83.1133 6.10833 83.4133 6.425C83.7299 6.725 84.1133 6.975 84.5633 7.175C85.0299 7.35833 85.6799 7.575 86.5133 7.825C87.6466 8.15833 88.5716 8.49167 89.2883 8.825C90.0049 9.15833 90.6216 9.65833 91.1383 10.325C91.6549 10.9917 91.9133 11.8667 91.9133 12.95C91.9133 13.8833 91.6716 14.75 91.1883 15.55C90.7049 16.35 89.9966 16.9917 89.0633 17.475C88.1299 17.9417 87.0216 18.175 85.7383 18.175ZM104.098 7.6V10.55H93.4977V7.6H104.098ZM120.998 0.55V18H117.498V10.575H110.023V18H106.523V0.55H110.023V7.725H117.498V0.55H120.998ZM126.393 0.55V11.35C126.393 12.5333 126.701 13.4417 127.318 14.075C127.934 14.6917 128.801 15 129.918 15C131.051 15 131.926 14.6917 132.543 14.075C133.159 13.4417 133.468 12.5333 133.468 11.35V0.55H136.993V11.325C136.993 12.8083 136.668 14.0667 136.018 15.1C135.384 16.1167 134.526 16.8833 133.443 17.4C132.376 17.9167 131.184 18.175 129.868 18.175C128.568 18.175 127.384 17.9167 126.318 17.4C125.268 16.8833 124.434 16.1167 123.818 15.1C123.201 14.0667 122.893 12.8083 122.893 11.325V0.55H126.393ZM148.774 9.05C149.758 9.23333 150.566 9.725 151.199 10.525C151.833 11.325 152.149 12.2417 152.149 13.275C152.149 14.2083 151.916 15.0333 151.449 15.75C150.999 16.45 150.341 17 149.474 17.4C148.608 17.8 147.583 18 146.399 18H138.874V0.55H146.074C147.258 0.55 148.274 0.741666 149.124 1.125C149.991 1.50833 150.641 2.04167 151.074 2.725C151.524 3.40833 151.749 4.18333 151.749 5.05C151.749 6.06667 151.474 6.91667 150.924 7.6C150.391 8.28333 149.674 8.76667 148.774 9.05ZM142.374 7.75H145.574C146.408 7.75 147.049 7.56667 147.499 7.2C147.949 6.81667 148.174 6.275 148.174 5.575C148.174 4.875 147.949 4.33333 147.499 3.95C147.049 3.56667 146.408 3.375 145.574 3.375H142.374V7.75ZM145.899 15.15C146.749 15.15 147.408 14.95 147.874 14.55C148.358 14.15 148.599 13.5833 148.599 12.85C148.599 12.1 148.349 11.5167 147.849 11.1C147.349 10.6667 146.674 10.45 145.824 10.45H142.374V15.15H145.899Z" fill="#C62738"/>
</svg>
